<?xml version="1.0" encoding="UTF-8" standalone="no"?>
<!DOCTYPE svg PUBLIC "-//W3C//DTD SVG 1.1//EN" "http://www.w3.org/Graphics/SVG/1.1/DTD/svg11.dtd">
<svg width="100%" height="100%" viewBox="0 0 486 70" version="1.1" xmlns="http://www.w3.org/2000/svg" xmlns:xlink="http://www.w3.org/1999/xlink" xml:space="preserve" xmlns:serif="http://www.serif.com/" style="fill-rule:evenodd;clip-rule:evenodd;stroke-linejoin:round;stroke-miterlimit:2;">
    <g transform="matrix(1,0,0,1,30.896,46.095)">
        <path d="M0,-22.513L-4.391,-19.68L-8.785,-22.513C-11.119,-24.019 -12.518,-26.575 -12.518,-29.35C-12.518,-33.828 -8.873,-37.472 -4.391,-37.472C0.088,-37.472 3.732,-33.828 3.732,-29.35C3.732,-26.575 2.336,-24.019 0,-22.513M25.883,-29.35C25.883,-33.828 29.527,-37.472 34.008,-37.472C38.486,-37.472 42.135,-33.828 42.135,-29.35C42.135,-26.575 40.736,-24.019 38.402,-22.513L34.008,-19.68L29.615,-22.513C27.277,-24.019 25.883,-26.575 25.883,-29.35M48.352,-10.434L41.143,-5.787C40.979,-5.682 40.879,-5.5 40.879,-5.305C40.879,-5.11 40.979,-4.928 41.143,-4.823L43.68,-3.188C48.822,0.127 51.891,5.751 51.891,11.856L51.891,14.961L22.113,14.961L22.113,11.856C22.113,8.041 21.305,4.355 19.799,0.999C21.059,-0.643 22.598,-2.068 24.334,-3.186L34.008,-9.423L41.963,-14.551L43.074,-15.266C47.883,-18.366 50.754,-23.633 50.754,-29.349C50.754,-38.58 43.24,-46.094 34.008,-46.094C24.773,-46.094 17.262,-38.58 17.262,-29.349C17.262,-23.631 20.133,-18.364 24.943,-15.265L26.051,-14.551L19.664,-10.432C17.895,-9.294 16.266,-7.942 14.816,-6.418C13.377,-7.924 11.752,-9.276 9.951,-10.434L3.564,-14.551L4.672,-15.266C9.482,-18.366 12.354,-23.633 12.354,-29.349C12.354,-38.58 4.842,-46.094 -4.393,-46.094C-13.627,-46.094 -21.139,-38.58 -21.139,-29.349C-21.139,-23.631 -18.268,-18.364 -13.457,-15.265L-12.35,-14.551L-18.736,-10.432C-26.352,-5.526 -30.896,2.809 -30.896,11.856L-30.896,19.271C-30.896,21.653 -28.967,23.582 -26.586,23.582L3.143,23.582C5.523,23.582 7.453,21.653 7.453,19.271C7.453,16.89 5.523,14.961 3.143,14.961L-22.275,14.961L-22.275,11.856C-22.275,5.751 -19.207,0.127 -14.066,-3.186L-4.393,-9.423L5.281,-3.188C7.641,-1.667 9.564,0.341 10.955,2.661C11.031,2.815 11.119,2.966 11.215,3.109C12.688,5.736 13.49,8.731 13.49,11.856L13.49,19.271C13.49,21.653 15.42,23.582 17.801,23.582L56.201,23.582C58.582,23.582 60.512,21.653 60.512,19.271L60.512,11.856C60.512,2.808 55.967,-5.528 48.352,-10.434M419.021,21.807C418.098,21.425 417.176,20.655 417.176,19.27C417.176,17.809 418.406,16.733 419.713,16.733C420.252,16.733 420.713,16.886 421.174,17.04C422.328,17.425 423.482,17.733 425.48,17.733C429.174,17.733 431.326,15.503 433.477,10.658L433.785,10.042L417.176,-25.178C416.945,-25.716 416.789,-26.254 416.789,-26.792C416.789,-28.408 418.098,-29.714 419.789,-29.714C421.406,-29.714 422.25,-28.714 422.789,-27.409L436.631,3.814L448.936,-27.484C449.396,-28.714 450.242,-29.714 451.781,-29.714C453.395,-29.714 454.703,-28.408 454.703,-26.792C454.703,-26.331 454.549,-25.792 454.395,-25.331L438.861,11.735C435.4,19.963 431.557,22.962 425.557,22.962C422.941,22.962 421.021,22.501 419.021,21.807M401.643,-43.096C401.643,-44.71 402.949,-46.095 404.564,-46.095C406.256,-46.095 407.564,-44.71 407.564,-43.096L407.564,7.813C407.564,9.505 406.332,10.812 404.641,10.812C402.949,10.812 401.643,9.505 401.643,7.813L401.643,-43.096ZM358.963,-43.096C358.963,-44.71 360.27,-46.095 361.885,-46.095C363.576,-46.095 364.885,-44.71 364.885,-43.096L364.885,-6.645L386.416,-28.561C387.109,-29.33 387.801,-29.714 388.723,-29.714C390.336,-29.714 391.414,-28.408 391.414,-26.947C391.414,-26.023 391.029,-25.409 390.26,-24.639L377.266,-11.873L391.492,6.044C392.029,6.736 392.26,7.274 392.26,8.043C392.26,9.658 391.029,10.812 389.414,10.812C388.338,10.812 387.645,10.427 386.877,9.427L373.113,-7.951L364.885,0.199L364.885,7.813C364.885,9.505 363.654,10.812 361.961,10.812C360.27,10.812 358.963,9.505 358.963,7.813L358.963,-43.096ZM344.119,-11.643C343.504,-18.872 339.352,-25.178 331.432,-25.178C324.512,-25.178 319.281,-19.41 318.512,-11.643L344.119,-11.643ZM332.355,11.35C321.436,11.35 312.516,2.968 312.516,-9.336L312.516,-9.491C312.516,-20.949 320.588,-30.177 331.586,-30.177C343.352,-30.177 350.041,-20.565 350.041,-10.028C350.041,-8.414 348.734,-7.26 347.271,-7.26L318.512,-7.26C319.359,1.353 325.434,6.197 332.508,6.197C337.43,6.197 341.043,4.275 343.967,1.584C344.428,1.199 344.967,0.892 345.658,0.892C347.119,0.892 348.271,2.046 348.271,3.429C348.271,4.121 347.965,4.814 347.35,5.351C343.582,8.966 339.123,11.35 332.355,11.35M300.135,-11.643C299.518,-18.872 295.367,-25.178 287.447,-25.178C280.523,-25.178 275.295,-19.41 274.527,-11.643L300.135,-11.643ZM288.367,11.35C277.447,11.35 268.527,2.968 268.527,-9.336L268.527,-9.491C268.527,-20.949 276.604,-30.177 287.598,-30.177C299.363,-30.177 306.055,-20.565 306.055,-10.028C306.055,-8.414 304.748,-7.26 303.287,-7.26L274.527,-7.26C275.371,1.353 281.447,6.197 288.521,6.197C293.443,6.197 297.059,4.275 299.98,1.584C300.441,1.199 300.979,0.892 301.672,0.892C303.135,0.892 304.285,2.046 304.285,3.429C304.285,4.121 303.979,4.814 303.363,5.351C299.596,8.966 295.135,11.35 288.367,11.35M217.928,8.35L205.854,-25.255C205.699,-25.716 205.469,-26.331 205.469,-26.868C205.469,-28.331 206.699,-29.714 208.469,-29.714C210.004,-29.714 211.004,-28.714 211.469,-27.254L221.465,2.584L231.537,-27.331C232,-28.714 232.922,-29.714 234.461,-29.714L234.768,-29.714C236.385,-29.714 237.383,-28.714 237.844,-27.331L247.842,2.584L257.992,-27.409C258.377,-28.638 259.221,-29.714 260.838,-29.714C262.529,-29.714 263.758,-28.408 263.758,-26.947C263.758,-26.409 263.529,-25.792 263.373,-25.331L251.225,8.35C250.609,10.12 249.377,11.042 247.994,11.042L247.764,11.042C246.227,11.042 245.072,10.12 244.533,8.35L234.613,-20.64L224.617,8.35C224.08,10.12 222.924,11.042 221.389,11.042L221.232,11.042C219.773,11.042 218.541,10.12 217.928,8.35M168.941,6.351C167.943,5.814 167.172,4.66 167.172,3.121C167.172,1.047 168.787,-0.647 170.939,-0.647C171.711,-0.647 172.402,-0.416 172.939,-0.108C176.863,2.506 180.937,3.814 184.629,3.814C188.627,3.814 190.934,2.122 190.934,-0.571L190.934,-0.724C190.934,-3.875 186.629,-4.952 181.859,-6.414C175.863,-8.106 169.17,-10.567 169.17,-18.334L169.17,-18.488C169.17,-26.177 175.555,-30.868 183.629,-30.868C187.936,-30.868 192.473,-29.637 196.395,-27.561C197.699,-26.868 198.623,-25.638 198.623,-24.025C198.623,-21.87 196.932,-20.256 194.779,-20.256C194.01,-20.256 193.549,-20.41 192.934,-20.716C189.627,-22.409 186.244,-23.487 183.398,-23.487C179.783,-23.487 177.707,-21.794 177.707,-19.488L177.707,-19.333C177.707,-16.334 182.09,-15.104 186.859,-13.567C192.779,-11.721 199.471,-9.029 199.471,-1.723L199.471,-1.57C199.471,6.966 192.855,11.196 184.398,11.196C179.246,11.196 173.631,9.582 168.941,6.351M132.723,6.351C131.723,5.814 130.953,4.66 130.953,3.121C130.953,1.047 132.566,-0.647 134.723,-0.647C135.49,-0.647 136.182,-0.416 136.721,-0.108C140.643,2.506 144.717,3.814 148.41,3.814C152.408,3.814 154.715,2.122 154.715,-0.571L154.715,-0.724C154.715,-3.875 150.408,-4.952 145.643,-6.414C139.643,-8.106 132.951,-10.567 132.951,-18.334L132.951,-18.488C132.951,-26.177 139.334,-30.868 147.41,-30.868C151.715,-30.868 156.252,-29.637 160.176,-27.561C161.482,-26.868 162.404,-25.638 162.404,-24.025C162.404,-21.87 160.711,-20.256 158.559,-20.256C157.791,-20.256 157.33,-20.41 156.715,-20.716C153.408,-22.409 150.023,-23.487 147.18,-23.487C143.564,-23.487 141.488,-21.794 141.488,-19.488L141.488,-19.333C141.488,-16.334 145.871,-15.104 150.639,-13.567C156.559,-11.721 163.252,-9.029 163.252,-1.723L163.252,-1.57C163.252,6.966 156.637,11.196 148.178,11.196C143.025,11.196 137.412,9.582 132.723,6.351M89.656,-9.645L89.656,-9.797C89.656,-21.333 98.576,-31.023 110.805,-31.023C117.186,-31.023 121.57,-28.945 125.029,-25.947C125.646,-25.409 126.492,-24.255 126.492,-22.716C126.492,-20.333 124.568,-18.488 122.186,-18.488C121.031,-18.488 120.031,-18.949 119.416,-19.41C117.033,-21.41 114.418,-22.87 110.729,-22.87C103.961,-22.87 98.961,-17.026 98.961,-9.951L98.961,-9.797C98.961,-2.569 103.961,3.198 111.113,3.198C114.803,3.198 117.648,1.738 120.186,-0.416C120.725,-0.878 121.646,-1.415 122.725,-1.415C124.953,-1.415 126.723,0.429 126.723,2.66C126.723,3.89 126.26,4.89 125.414,5.582C121.801,9.042 117.416,11.35 110.648,11.35C98.576,11.35 89.656,1.892 89.656,-9.645" style="fill:rgb(155,129,112);fill-rule:nonzero;"/>
    </g>
</svg>
